<svg id="Group_1829" data-name="Group 1829" xmlns="http://www.w3.org/2000/svg" width="18.841" height="17.075" viewBox="0 0 18.841 17.075">
  <path id="Path_1495" data-name="Path 1495" d="M9.421,17.075A.713.713,0,0,1,9,16.9L6.275,14.131h-4.8A1.473,1.473,0,0,1,0,12.66V1.471A1.473,1.473,0,0,1,1.471,0h15.9a1.473,1.473,0,0,1,1.471,1.471V12.66a1.473,1.473,0,0,1-1.471,1.471H12.608L9.837,16.9A.587.587,0,0,1,9.421,17.075ZM1.471,1.178a.294.294,0,0,0-.294.294V12.66a.294.294,0,0,0,.294.293H6.522a.586.586,0,0,1,.419.176L9.424,15.65l2.525-2.524a.586.586,0,0,1,.416-.173h5.006a.294.294,0,0,0,.293-.293V1.471a.294.294,0,0,0-.293-.294Z" fill="#fff"/>
  <circle id="Ellipse_5" data-name="Ellipse 5" cx="0.589" cy="0.589" r="0.589" transform="translate(8.795 9.421)" fill="#fff"/>
  <path id="Path_1496" data-name="Path 1496" d="M14.293,11.286A.589.589,0,0,1,13.7,10.7c0-.784.693-1.38,1.371-1.861a1.068,1.068,0,0,0,.313-1.051,1.125,1.125,0,0,0-1.057-.64h0a1.29,1.29,0,0,0-1.251.812.589.589,0,0,1-1.1-.409,2.464,2.464,0,0,1,2.355-1.58h0A2.292,2.292,0,0,1,16.51,7.427,2.242,2.242,0,0,1,15.756,9.8c-.789.559-.874.815-.874.9A.59.59,0,0,1,14.293,11.286Z" transform="translate(-4.909 -2.454)" fill="#fff"/>
</svg>
